<svg xmlns="http://www.w3.org/2000/svg" width="25" height="25" fill="none" viewBox="0 0 25 25"><path fill="#0f0f0f" fill-rule="evenodd" d="M12.5 18.75a6.25 6.25 0 1 0 0-12.5 6.25 6.25 0 0 0 0 12.5m0-2.083a4.167 4.167 0 1 0 0-8.334 4.167 4.167 0 0 0 0 8.334" clip-rule="evenodd"/><path fill="#0f0f0f" d="M18.75 5.208a1.042 1.042 0 1 0 0 2.084 1.042 1.042 0 0 0 0-2.084"/><path fill="#0f0f0f" fill-rule="evenodd" d="M1.723 4.454c-.681 1.337-.681 3.087-.681 6.588v2.916c0 3.5 0 5.25.681 6.588a6.25 6.25 0 0 0 2.731 2.731c1.337.681 3.087.681 6.588.681h2.916c3.5 0 5.25 0 6.588-.68a6.25 6.25 0 0 0 2.731-2.732c.681-1.337.681-3.087.681-6.588v-2.916c0-3.5 0-5.25-.68-6.588a6.25 6.25 0 0 0-2.732-2.731c-1.337-.681-3.087-.681-6.588-.681h-2.916c-3.5 0-5.25 0-6.588.68a6.25 6.25 0 0 0-2.731 2.732m12.235-1.329h-2.916c-1.785 0-2.998.002-3.936.078-.913.075-1.38.21-1.706.376A4.17 4.17 0 0 0 3.58 5.4c-.167.326-.302.793-.377 1.706-.076.938-.078 2.151-.078 3.936v2.916c0 1.785.002 2.998.078 3.936.075.913.21 1.38.376 1.706A4.17 4.17 0 0 0 5.4 21.42c.326.167.793.302 1.706.377.938.076 2.151.078 3.936.078h2.916c1.785 0 2.998-.002 3.936-.078.913-.075 1.38-.21 1.706-.376a4.17 4.17 0 0 0 1.82-1.821c.167-.326.302-.793.377-1.706.076-.938.078-2.151.078-3.936v-2.916c0-1.785-.002-2.998-.078-3.936-.075-.913-.21-1.38-.376-1.706a4.17 4.17 0 0 0-1.82-1.82c-.327-.167-.794-.302-1.707-.377-.938-.076-2.151-.078-3.936-.078" clip-rule="evenodd"/></svg>